<svg width="116" height="115" viewBox="0 0 116 115" fill="none" xmlns="http://www.w3.org/2000/svg">
<path d="M13.9062 54.4666C17.738 58.7978 21.0566 63.4153 24.4166 68.0726C18.2734 64.925 12.131 61.7787 5.98831 58.6307C8.62715 57.2418 11.2666 55.8543 13.9062 54.4666ZM45.4329 78.8413C39.1816 75.6382 32.933 72.4361 26.6824 69.2342C23.6747 63.6277 19.7451 58.4256 15.7244 53.5096C18.4448 52.0787 21.1662 50.6487 23.8869 49.2175C30.9246 59.1872 38.1428 69.0518 45.4329 78.8413ZM36.703 42.4767L36.7988 42.7457C41.0715 49.8127 45.2384 57.0158 49.7895 63.9138C48.9374 63.7584 48.0856 63.6105 47.2343 63.4523C46.006 63.2249 45.3458 64.4271 45.5959 65.3366L45.5708 65.6632C46.1108 70.1279 46.6479 74.487 46.8206 78.9392C39.8371 68.6724 32.7551 58.4484 25.511 48.3627L36.703 42.4767ZM48.6021 36.218C48.3943 41.3634 47.5571 46.2434 46.0693 51.2398C45.7267 52.3923 46.9459 53.1108 47.9125 52.9069C49.7363 52.522 51.5629 52.156 53.3895 51.7778C55.9981 56.692 59.2485 61.5151 62.4114 66.1254C58.5888 65.4833 54.7704 64.8127 50.9558 64.1242C47.0644 56.5097 42.6615 49.1044 38.4474 41.668L38.3815 41.5939C41.7884 39.8012 45.1943 38.0097 48.6021 36.218ZM64.737 49.438C64.3106 49.5933 63.9887 50.0835 64.3043 50.5845C68.0578 56.5405 71.8885 62.5007 75.8902 68.3009C71.8612 67.6795 67.8366 67.0216 63.8149 66.3525C61.1175 61.3538 58.2637 56.1347 55.0421 51.4364C58.2747 50.7699 61.5038 50.0933 64.737 49.438ZM74.7136 47.4254L74.7808 47.607C79.49 55.1949 84.2106 62.7839 89.0962 70.2612C85.1491 69.7042 81.2066 69.1186 77.2677 68.517C73.5583 62.1622 69.5987 55.9058 65.6136 49.7289C65.4409 49.4611 65.1943 49.3774 64.9529 49.395C68.2049 48.7349 71.4578 48.0757 74.7136 47.4254ZM85.099 45.3498C88.8378 51.2071 92.6523 57.0188 96.5448 62.7746C96.5345 65.6118 96.5077 68.4494 96.4402 71.288C94.4203 71.0188 92.4053 70.7245 90.3865 70.4422C85.829 62.5889 81.0821 54.8385 76.3314 47.1023C79.2538 46.519 82.1751 45.9269 85.099 45.3498ZM96.1653 43.1664C96.4167 49.0174 96.5325 54.8668 96.5408 60.7174C93.3773 55.4424 90.1522 50.2013 86.8662 45.0014C89.9663 44.3932 93.063 43.765 96.1653 43.1664ZM2.24421 59.9163C17.3893 67.6744 32.5333 75.4315 47.6781 83.1899C48.6707 83.698 49.7606 82.923 49.755 81.8558C49.7271 76.6247 49.3022 71.485 47.8459 66.4739C64.3395 69.5113 80.9007 72.1318 97.5293 74.3219C98.5 74.45 99.2433 73.8377 99.2704 72.8516C99.5564 62.3527 99.4533 51.8693 98.9612 41.3774C98.9136 40.3543 97.9741 39.9186 97.0833 40.0908C81.1822 43.1517 65.3099 46.3572 49.4637 49.6885C50.8225 44.4615 51.4847 39.1994 51.5067 33.7631C51.5108 32.5882 50.1861 32.1715 49.2983 32.6395C33.5721 40.9126 17.8463 49.1853 2.12051 57.4579C1.1509 57.9682 1.3581 59.4616 2.24421 59.9163Z" fill="#171717"/>
</svg>
