<svg width="115" height="115" viewBox="0 0 115 115" fill="none" xmlns="http://www.w3.org/2000/svg">
<path d="M59.7123 13.017C55.3977 16.8675 50.7945 20.2059 46.1518 23.586C49.2728 17.4293 52.3926 11.2733 55.5142 5.11711C56.9144 7.74994 58.3133 10.3834 59.7123 13.017ZM35.4739 44.6485C38.65 38.3834 41.8251 32.1211 45 25.8567C50.5935 22.8249 55.7786 18.8729 60.6771 14.831C62.1198 17.5452 63.5615 20.2604 65.0045 22.975C55.0652 30.0556 45.2318 37.3162 35.4739 44.6485ZM71.8005 35.7619L71.5319 35.8588C64.4833 40.162 57.2983 44.3599 50.42 48.9407C50.5717 48.0879 50.7159 47.2355 50.8704 46.3835C51.0926 45.1542 49.8876 44.4993 48.9791 44.7533L48.6524 44.7296C44.1901 45.2889 39.8333 45.8447 35.382 46.0367C45.6186 39.0089 55.8119 31.8828 65.8662 24.5954L71.8005 35.7619ZM78.1104 47.6338C72.9642 47.4482 68.0806 46.632 63.0779 45.1659C61.9239 44.8282 61.2106 46.0506 61.4187 47.0163C61.8115 48.8384 62.1854 50.6633 62.5714 52.4883C57.6686 55.118 52.8595 58.3892 48.2629 61.572C48.8885 57.7467 49.5426 53.9255 50.2146 50.1079C57.8122 46.1836 65.1985 41.7489 72.6166 37.5028L72.6905 37.4365C74.4979 40.8356 76.304 44.2338 78.1104 47.6338ZM64.9602 63.8256C64.803 63.3999 64.3114 63.0801 63.8118 63.3979C57.8721 67.177 51.9284 71.0334 46.1455 75.0601C46.7496 71.0285 47.3901 67.001 48.0418 62.9765C53.0288 60.2575 58.2356 57.3813 62.9199 54.1394C63.6004 57.3691 64.2909 60.5953 64.9602 63.8256ZM67.0158 73.7934L66.8344 73.8614C59.267 78.6033 51.6984 83.3566 44.2422 88.2744C44.7822 84.3249 45.3508 80.3799 45.9354 76.4385C52.2742 72.7017 58.5134 68.7152 64.673 64.7035C64.9401 64.5296 65.0227 64.2827 65.0041 64.0413C65.6782 67.2904 66.3514 70.5405 67.0158 73.7934ZM69.1361 84.1698C63.295 87.9338 57.4999 91.7734 51.7609 95.6906C48.9237 95.6926 46.086 95.678 43.2471 95.6227C43.5076 93.6017 43.7932 91.5855 44.0668 89.5655C51.9004 84.9741 59.6302 80.1939 67.3458 75.4098C67.9418 78.3297 68.5464 81.2484 69.1361 84.1698ZM71.3673 95.2265C65.5174 95.5032 59.6686 95.6442 53.818 95.6777C59.0793 92.4915 64.3065 89.2439 69.4922 85.9355C70.1137 89.033 70.7553 92.1269 71.3673 95.2265ZM54.2124 1.37859C46.5197 16.557 38.8279 31.7343 31.135 46.9124C30.6312 47.9072 31.4109 48.9937 32.478 48.9836C37.7089 48.9331 42.8468 48.4861 47.8515 47.0082C44.8854 63.5147 42.3362 80.0871 40.2179 96.725C40.094 97.6962 40.7095 98.4369 41.6957 98.4596C52.1958 98.7004 62.6786 98.552 73.1683 98.0147C74.1912 97.9627 74.6228 97.0213 74.4468 96.1313C71.3173 80.2435 68.0434 64.3853 64.6438 48.5536C69.8766 49.8898 75.1415 50.5293 80.5779 50.5278C81.7528 50.5269 82.1637 49.2004 81.6919 48.3146C73.351 32.6242 65.0106 16.9343 56.6702 1.2443C56.1557 0.276889 54.6633 0.490528 54.2124 1.37859Z" fill="#171717"/>
</svg>
